<svg xmlns="http://www.w3.org/2000/svg" width="210" height="67" viewBox="0 0 210 67">
  <defs>
    <style>
      .a {
        fill: #0a2966;
      }

      .b {
        fill: #fff;
      }
    </style>
  </defs>
  <title>header_cart_bg</title>
  <g>
    <path class="a" d="M210,67a5,5,0,0,1-5-5V5a5,5,0,0,0-5-5H10A5,5,0,0,0,5,5V62a5,5,0,0,1-5,5Z"/>
    <g>
      <path class="b" d="M36,36H22a1.9,1.9,0,0,1-2-1.8L18,25H40l-2,9.2A1.9,1.9,0,0,1,36,36"/>
      <path class="b" d="M38.3,20l-.9,1.8a2.2,2.2,0,0,1-2,1.2,1.9,1.9,0,0,1-1-.3,2.1,2.1,0,0,1-1.1-1.3,2.3,2.3,0,0,1,.1-1.4H24.7a2.2,2.2,0,0,1-1.1,2.6,1.9,1.9,0,0,1-1,.3,2.4,2.4,0,0,1-2-1.2L19.7,20H17v4H41V20Z"/>
      <path class="b" d="M34.8,21.9a1.4,1.4,0,0,0,1.7-.5l2.4-4.5a1.4,1.4,0,0,0-.5-1.7,1.4,1.4,0,0,0-1.7.5l-2.4,4.5a1.4,1.4,0,0,0,.5,1.7"/>
      <path class="b" d="M21.3,21.3a1.3,1.3,0,0,0,1.6.5,1.2,1.2,0,0,0,.5-1.7l-2.3-4.5a1.4,1.4,0,0,0-1.7-.5,1.3,1.3,0,0,0-.5,1.7Z"/>
    </g>
  </g>
</svg>
