<svg xmlns="http://www.w3.org/2000/svg" width="186.8" height="43" viewBox="0 0 186.8 43">
  <defs>
    <style>
      .a {
        fill: #db4a95;
      }

      .b {
        fill: #fff;
      }
    </style>
  </defs>
  <title>header_cartcopy</title>
  <g>
    <g>
      <path class="a" d="M62.7,42.6a5.9,5.9,0,0,1-4.6-2,5.1,5.1,0,0,1-2.3,2.3l-1.5-2.1a7,7,0,0,0,2.5-2.2V34.4H54.5V32h4.7v6.4c.6,1.1,1.7,1.7,3.6,1.7l9.5-.3-.8,2.8ZM56.9,29.9a26,26,0,0,0-2.4-3.1l2-1.5a17.7,17.7,0,0,1,2.4,3.1Zm14,9.5A9.6,9.6,0,0,1,65.7,35a10.4,10.4,0,0,1-4.3,4.5l-1.5-2.3a6.6,6.6,0,0,0,4.2-3.4H60V31.5h4.6a9.7,9.7,0,0,0,.1-1.8H60.5V27.4h2l-1.3-1.1L63.3,25a18.4,18.4,0,0,1,1.8,2.4h1.6L68.4,25l2.4.8-1.4,1.6h2v2.3H67.1a9.7,9.7,0,0,1-.1,1.8h4.9v2.3H67.3a7.8,7.8,0,0,0,4.8,3.4Z"/>
      <path class="a" d="M87.9,43V37.7l-5.2,1-.4-2.3-1,1.8a13.2,13.2,0,0,1-1.4-3.1V43H77.6V35.6a21.1,21.1,0,0,1-1.8,4.9l-1.7-2.7a12.2,12.2,0,0,0,3.2-4.6H74.6V31h3V29.9l-1.8.7c-.8-2.6-1.3-4-1.3-4l2-.6s.5,1.4,1.1,3.7V25h2.3v4.6A32.5,32.5,0,0,0,81,25.9l2,.6a32.9,32.9,0,0,1-1.4,4.1l-1.7-.8V31h2.7v2.2H80.2a12.4,12.4,0,0,0,2.4,2.6l-.2.4,5.5-1V25h2.5v9.7l1.3-.2.4,2.4-1.7.4V43Zm-2.3-8.4c-1-1-2.8-2.5-2.8-2.5l1.5-1.7,2.8,2.4Zm.5-4.4a29.8,29.8,0,0,0-2.8-2.5L84.9,26l2.8,2.4Z"/>
      <path class="a" d="M93.7,41.5a9,9,0,0,0,2-3.4l2.3.8A12.2,12.2,0,0,1,95.9,43Zm1-3.6V35.8h1.6V33.2H93.9V31.1h2.4V30l-.8.8-1.7-2a9.8,9.8,0,0,0,3.9-3.7l2.6.4a8.3,8.3,0,0,1-.9,1.1h11.3v2.1H109v2.4h2.4v2.1H109v2.6h1.9v2.1Zm5.2-9.2H98.6v2.4h1.3Zm0,4.5H98.6v2.6h1.3Zm0,9.8s-.3-2-.8-3.9l2.3-.5a32.5,32.5,0,0,1,1.1,3.7Zm3.5-14.3H102v2.4h1.4Zm0,4.5H102v2.6h1.4Zm1.1,9.7a23.4,23.4,0,0,0-1.3-3.7l2.3-.8c.8,1.8,1.5,3.8,1.5,3.8Zm2.3-14.2h-1.3v2.4h1.3Zm0,4.5h-1.3v2.6h1.3Zm2.6,9.8a28,28,0,0,0-1.9-3.8l2.1-1a22.6,22.6,0,0,1,2.1,3.6Z"/>
      <path class="a" d="M127.1,43V37.7l-5.2,1-.4-2.3-1,1.8a13.2,13.2,0,0,1-1.4-3.1V43h-2.3V35.6a21.1,21.1,0,0,1-1.8,4.9l-1.7-2.7a12.2,12.2,0,0,0,3.2-4.6h-2.7V31h3V29.9l-1.8.7c-.8-2.6-1.3-4-1.3-4l2-.6s.5,1.4,1.1,3.7V25h2.3v4.6a32.5,32.5,0,0,0,1.1-3.7l2,.6a32.9,32.9,0,0,1-1.4,4.1l-1.7-.8V31h2.7v2.2h-2.4a12.4,12.4,0,0,0,2.4,2.6l-.2.4,5.5-1V25h2.5v9.7l1.3-.2.4,2.4-1.7.4V43Zm-2.3-8.4c-1-1-2.8-2.5-2.8-2.5l1.5-1.7,2.8,2.4Zm.5-4.4a29.8,29.8,0,0,0-2.8-2.5l1.6-1.7,2.8,2.4Z"/>
    </g>
    <rect class="a" x="15.4" width="63" height="20"/>
    <g>
      <path class="b" d="M28.9,15.6c-2.3,0-3.7-.2-4.9-1.8A6.3,6.3,0,0,1,22.4,16l-1-1a6.4,6.4,0,0,0,2.2-4.4l1.2.2a7.4,7.4,0,0,1-.3,1.7,3.6,3.6,0,0,0,2.1,1.8V9.2H22.8V8h8.9V9.2H27.9v1.9h3.3v1.2H27.9v2.1h5.2l-.3,1.2Zm2.6-7.8V6.4H23V7.8H21.8V5.3h4.9v-1h1.2v1h4.9V7.8Z"/>
      <path class="b" d="M34.5,15a6.8,6.8,0,0,0,1.4-1.8l1,.6A11.3,11.3,0,0,1,35.4,16Zm0-2V11.9h.8V6.6h-.6V5.5h.6V4.3h1.2V5.5h2.2V4.3h1.2V5.5h.6V6.6h-.6v5.3h.9V13Zm4.2-6.4H36.5v1h2.2Zm0,2H36.5V9.7h2.2Zm0,2.1H36.5v1.2h2.2Zm.8,5a13,13,0,0,0-1.2-1.9l1-.6L40.5,15Zm3.5-1c1.4,0,1.4-.1,1.4-.6V11.9H42.5a13.6,13.6,0,0,1-.9,4.1l-1.1-.8a14.4,14.4,0,0,0,.8-5.2V4.7h4.4v9.6c0,1.4-.7,1.6-2.2,1.6Zm1.4-8.9H42.5V7.6h1.9Zm0,3H42.5v1.9h1.9Z"/>
      <path class="b" d="M47.3,14.8a13.7,13.7,0,0,0,2.3-4l.9,1a22.4,22.4,0,0,1-2.1,4Zm2.3-4.9a16,16,0,0,0-2.1-1.7l.6-.9,2.2,1.6ZM50,6.8a14.6,14.6,0,0,0-2-1.5l.7-1,2.1,1.6Zm.6,8.7V14.3h3.6V11.4H51.4V10.3h2.8V7.9H50.9V6.7h4.5L53.1,5.1l.9-.8a24.8,24.8,0,0,1,2.5,1.8l-.9.6h3V7.9H55.5v2.4h2.7v1.1H55.5v2.9H59v1.2Z"/>
      <path class="b" d="M71.5,16a14.4,14.4,0,0,1-5.1-2.7A13.7,13.7,0,0,1,61,16l-.6-1.4a12.2,12.2,0,0,0,5-2.3,12.9,12.9,0,0,1-3.1-5H60.7V6.1h4.9V4.3h1.3V6.1h4.9V7.3H70.2a11.3,11.3,0,0,1-2.9,5.1,16.6,16.6,0,0,0,4.8,2.2ZM63.7,7.3a11.5,11.5,0,0,0,2.6,4.2,9.2,9.2,0,0,0,2.5-4.2Z"/>
    </g>
    <rect class="a" x="83.4" width="86" height="20"/>
    <g>
      <path class="b" d="M91.6,6.1,91.3,9h0a2.9,2.9,0,0,1,2.3-.8A3.2,3.2,0,0,1,97,11.6a3.4,3.4,0,0,1-3.7,3.6,3.6,3.6,0,0,1-3.7-2.4l1.4-.4A2.2,2.2,0,0,0,93.3,14a2.3,2.3,0,0,0,2.3-2.4,2.1,2.1,0,0,0-2.3-2.2,2.4,2.4,0,0,0-2.1,1.3l-1.4-.3.5-5.5h6V6.1Z"/>
      <path class="b" d="M99,16.3a1.5,1.5,0,0,0,.7-1.3h-.8V13.2h1.6v1.7a2.2,2.2,0,0,1-.9,1.9Z"/>
      <path class="b" d="M102.2,9.9c0-2.9,1.2-5.3,3.7-5.3s3.7,2.3,3.7,5.3-1.1,5.3-3.7,5.3S102.2,13.1,102.2,9.9Zm6,0c0-2.2-.8-4-2.3-4s-2.2,1.7-2.2,4,.7,4,2.2,4S108.2,12.3,108.2,9.9Z"/>
      <path class="b" d="M111.2,9.9c0-2.9,1.2-5.3,3.8-5.3s3.7,2.3,3.7,5.3-1.2,5.3-3.7,5.3S111.2,13.1,111.2,9.9Zm6,0c0-2.2-.7-4-2.2-4s-2.3,1.7-2.3,4,.8,4,2.3,4S117.2,12.3,117.2,9.9Z"/>
      <path class="b" d="M120.3,9.9c0-2.9,1.2-5.3,3.7-5.3s3.7,2.3,3.7,5.3-1.2,5.3-3.7,5.3S120.3,13.1,120.3,9.9Zm5.9,0c0-2.2-.7-4-2.2-4s-2.2,1.7-2.2,4,.7,4,2.2,4S126.2,12.3,126.2,9.9Z"/>
      <path class="b" d="M137,14.7c1.5,0,1.7,0,1.7-.3V10.7h-7.6V16h-1.3V4.9H140v9.5c0,1.2-.6,1.6-2.5,1.6ZM134.2,6h-3.1V9.6h3.1Zm4.5,0h-3.2V9.6h3.2Z"/>
      <path class="b" d="M147.7,12.8a25.6,25.6,0,0,1-5.7,2.4l-.2-1.3,1.1-.4v-9h1.3v8.6a22.3,22.3,0,0,0,3.4-1.5Zm.3-3.2a14.6,14.6,0,0,0-2.3-3.1l1-.8A21.4,21.4,0,0,1,149,8.9Zm4.5,6.3a15.3,15.3,0,0,0-1.7-3,9.2,9.2,0,0,1-3.1,3.1l-1.1-1.1c3.6-1.8,4.4-5.1,4.4-10.4h1.4a19.7,19.7,0,0,1-1,7.1,13.9,13.9,0,0,1,2.1,3.2Z"/>
      <path class="b" d="M154.9,15.5V14.2h4.6V4.4h1.4V8.7h4.6V9.9h-4.6v4.3h5.6v1.3Z"/>
    </g>
    <rect class="a" x="9.9" y="7.7" width="1" height="34" transform="translate(-12.6 10.9) rotate(-36)"/>
    <rect class="a" x="159.4" y="24.3" width="34" height="1" transform="translate(52.7 152.9) rotate(-54)"/>
  </g>
</svg>
