<svg xmlns="http://www.w3.org/2000/svg" width="14" height="12.4" viewBox="0 0 14 12.4">
  <defs>
    <style>
      .a {
        fill: #0a2966;
      }
    </style>
  </defs>
  <title>header_ico_home</title>
  <g>
    <path class="a" d="M1.9,12.1a.3.3,0,0,0,.3.3H5.7V9.5A.5.5,0,0,1,6.2,9H7.6c.6,0,.5.5.5.5v2.9h3.5A.4.4,0,0,0,12,12V6.7L7.1,2.3,1.9,6.7Z"/>
    <path class="a" d="M0,6.3s.4.8,1.4,0L7.1,1.4l5.4,4.8c1.1.8,1.5,0,1.5,0L7.1,0Z"/>
    <polygon class="a" points="12.4 1.4 11 1.4 11 3.1 12.4 4.3 12.4 1.4"/>
  </g>
</svg>
