<svg xmlns="http://www.w3.org/2000/svg" width="64" height="64" viewBox="0 0 64 64">
  <defs>
    <style>
      .a {
        fill: #d39c8e;
      }

      .b {
        fill: #fff;
      }

      .c, .d {
        fill: none;
        stroke-miterlimit: 10;
      }

      .c {
        stroke: #d39c8e;
        stroke-width: 3px;
      }

      .d {
        stroke: #fff;
        stroke-linecap: round;
      }
    </style>
  </defs>
  <title>item_ico_care</title>
  <g>
    <path class="a" d="M64,32A32,32,0,1,1,32,0,32,32,0,0,1,64,32"/>
    <g>
      <path class="b" d="M21.2,54.9a10.1,10.1,0,0,1-2.3-1.2,6,6,0,0,1-2.4,1.2l-.7-1.3v.8H12.4v.5H11.3V46.6h1v-.8H11V44.4h5.1v1.4H14.8v.8h1v1.8c.8-.3,1.2-.6,1.2-1.2h-.9l-.2-1.4h.8a6.6,6.6,0,0,0,.9-1.8l1.4.3a12.9,12.9,0,0,1-.9,1.5l1.7-.3-.5-.5,1-.6a12.4,12.4,0,0,1,1.5,1.9l-1.1.7a.8.8,0,0,0-.2-.4h-.4v.9c0,.2.1.2.2.2h.1c.2,0,.3-.1.3-.8l1.1.6c-.1,1.2-.2,1.4-1.3,1.4H20c-.7,0-1.1-.1-1.1-.8V47h-.6a2.7,2.7,0,0,1-1.8,2.6l-.7-1V51a4,4,0,0,0,2.1-2.3l1.3.3a1.4,1.4,0,0,1-.2.6h2.2v1.1a7,7,0,0,1-1.1,2.1,3.8,3.8,0,0,0,1.7.6Zm-8.9-7.1v2.5a5.4,5.4,0,0,0,.3-2.5Zm0,2.7v.8h.5Zm2.5,2H12.3v.6h2.5Zm0-1.8h-.5c-.5,0-.6-.3-.6-.9v-2h-.3a8.1,8.1,0,0,1-.5,3.5h1.9Zm-1.1-4.9h-.3v.8h.3Zm1.1,2h-.3v1.4c0,.2,0,.2.2.2h.1Zm1,3.5v2.1a5.4,5.4,0,0,0,2.1-.5l-.7-1-.5.4Zm2.4-.4a4.2,4.2,0,0,0,.8,1.2,4.2,4.2,0,0,0,.8-1.2Z"/>
      <path class="b" d="M24.2,54.9V49A5.1,5.1,0,0,1,23,50.3l-.6-1.7a9.1,9.1,0,0,0,3.2-4.5l1.5.5a14.6,14.6,0,0,1-1.4,2.8v7.5Zm4.5-.2c-.8,0-1.1-.1-1.1-.8V44.2h1.5v4a10.4,10.4,0,0,0,2.8-2.3l1.2,1.2a15.2,15.2,0,0,1-4,2.8V53a.2.2,0,0,0,.2.2h1.6c.6,0,.7-.2.9-2.6l1.4.8c-.2,3.1-.7,3.3-2.1,3.3Z"/>
      <path class="b" d="M40.9,48c-.2,3.8-1.4,5.6-5.3,6.9l-1.1-1.3c3.5-.8,4.8-2.4,4.9-5.6H36.2a11.8,11.8,0,0,1-1.7,2.4l-1.4-1a9.9,9.9,0,0,0,3-5.1l1.6.2c-.2.7-.5,1.4-.7,2h6.6V48Z"/>
      <path class="b" d="M50.5,49.1a4.4,4.4,0,0,0,2.4-2.5H44.5V45.1H54.7a5.8,5.8,0,0,1-3.1,5.1Zm-5.9,4.4c3.4-1.3,3.9-2.6,3.9-5.5v-.5H50c0,3.7-.6,5.5-4.2,7.2Z"/>
    </g>
    <path class="b" d="M25.5,26.5a5.9,5.9,0,0,0-3.3-2.9,9.1,9.1,0,0,1-3.4-1.7,14.3,14.3,0,0,0-3-2,5.4,5.4,0,0,0-6.6,4.7,8.9,8.9,0,0,0,1.4,5.2,13.3,13.3,0,0,0,2.7,3.3,8.8,8.8,0,0,0,8.9,1.1,7.3,7.3,0,0,0,3.4-3.6,4.9,4.9,0,0,0-.1-4.1m-2.6-1.2a.2.2,0,0,1-.2.2h-.1c-3.6,1.4-6-2.9-6.1-3s0-.3.1-.3h.3A25.7,25.7,0,0,0,22.7,25c.1.1.2.2.2.3"/>
    <path class="b" d="M49.8,21.9A6.5,6.5,0,0,0,44.2,14,14.5,14.5,0,0,0,40,15.2a10,10,0,0,1-3.8.5c-2,.1-3.7.3-5,1.5a8.1,8.1,0,0,0-1.9,5.4c.1,1.8,1.4,3.7,3,5.1s5.8,2.8,9.9,1.7a9.5,9.5,0,0,0,4-2.2,10.7,10.7,0,0,0,3.6-5.3m-6.7-5.8h0c-4.9,4.7-7.9,1.8-8,1.8a.5.5,0,0,1-.2-.4c0-.1.1-.2.3-.2a39.9,39.9,0,0,0,7.6-1.7c.1-.1.3,0,.4.1a.4.4,0,0,1-.1.3"/>
    <path class="a" d="M40.5,32.8a11.6,11.6,0,0,0,.1-6.4c-1.3-3.6-5.9-5.4-9.1-3.5a18.1,18.1,0,0,0-2.9,3.3,11.6,11.6,0,0,1-2.8,2.6c-1.6,1.1-2.9,2.2-3.4,4a6.9,6.9,0,0,0,1.5,5.5,9.2,9.2,0,0,0,5.3,2.6c3.2.3,6.3-.9,9.2-4.1a11.6,11.6,0,0,0,2.1-4"/>
    <path class="c" d="M40.5,32.8a11.6,11.6,0,0,0,.1-6.4c-1.3-3.6-5.9-5.4-9.1-3.5a18.1,18.1,0,0,0-2.9,3.3,11.6,11.6,0,0,1-2.8,2.6c-1.6,1.1-2.9,2.2-3.4,4a6.9,6.9,0,0,0,1.5,5.5,9.2,9.2,0,0,0,5.3,2.6c3.2.3,6.3-.9,9.2-4.1A11.6,11.6,0,0,0,40.5,32.8Z"/>
    <path class="b" d="M40.5,32.8a11.6,11.6,0,0,0,.1-6.4c-1.3-3.6-5.9-5.4-9.1-3.5a18.1,18.1,0,0,0-2.9,3.3,11.6,11.6,0,0,1-2.8,2.6c-1.6,1.1-2.9,2.2-3.4,4a6.9,6.9,0,0,0,1.5,5.5,9.2,9.2,0,0,0,5.3,2.6c3.2.3,6.3-.9,9.2-4.1a11.6,11.6,0,0,0,2.1-4m-15-1.5c-.2,0-.3-.1-.3-.2s0-.2.1-.3,4.2-4.1,6.3-6.5c.1-.1.2-.2.4-.1a.4.4,0,0,1,.1.3h0a9.5,9.5,0,0,1-6.6,6.7"/>
    <line class="d" x1="19" y1="9.1" x2="22" y2="14.1"/>
    <line class="d" x1="32.9" y1="6.9" x2="31" y2="11.9"/>
    <line class="d" x1="41" y1="8.8" x2="39" y2="10.8"/>
    <line class="d" x1="11" y1="14.2" x2="14.1" y2="16.2"/>
  </g>
</svg>
