<svg xmlns="http://www.w3.org/2000/svg" width="64" height="64" viewBox="0 0 64 64">
  <defs>
    <style>
      .a {
        fill: #bb96b6;
      }

      .b {
        fill: #fff;
      }
    </style>
  </defs>
  <title>item_ico_toire</title>
  <g>
    <path class="a" d="M64,32A32,32,0,1,1,32,0,32,32,0,0,1,64,32"/>
    <g>
      <path class="b" d="M25.4,52.3a33.9,33.9,0,0,1-5.4-2v5.6H18.5V45.5H20v3.2A43.2,43.2,0,0,0,26.1,51Z"/>
      <path class="b" d="M32.4,55.7V50a34.7,34.7,0,0,1-4.3,2.1L27,50.9a22.9,22.9,0,0,0,9-5.7l1.2,1A18.1,18.1,0,0,1,33.9,49v6.7Z"/>
      <path class="b" d="M47.9,49.9c-1.7,3.6-4.9,5.4-8.9,5.7V45.8h1.5v8a8.3,8.3,0,0,0,6.3-5.1Z"/>
    </g>
    <rect class="b" x="15" y="25" width="29" height="2"/>
    <path class="b" d="M42.4,24h-7V5a.9.9,0,0,1,1-1h3a3,3,0,0,1,3,3Z"/>
    <path class="b" d="M17,28c-.2,1.7-.4,7.5,8.4,8.9,0,0,4-.2,4,4.8H40v-8A9.1,9.1,0,0,1,43.1,28Z"/>
  </g>
</svg>
