<svg xmlns="http://www.w3.org/2000/svg" width="64" height="64" viewBox="0 0 64 64">
  <defs>
    <style>
      .a {
        fill: #caa972;
      }

      .b {
        fill: #fff;
      }
    </style>
  </defs>
  <title>item_ico_meguri</title>
  <g>
    <path class="a" d="M64,32A32,32,0,1,1,32,0,32,32,0,0,1,64,32"/>
    <g>
      <path class="b" d="M21.8,53.2h.6c2.5,0,3.6-1.5,3.6-2.9a2.6,2.6,0,0,0-2.4-2.7c-.9,3.6-2.3,6.5-4.3,6.5h-.4a2.4,2.4,0,0,1-1.6-2.6,5.6,5.6,0,0,1,1.6-3.8l-.6-2.5,1.5-.4a17.7,17.7,0,0,0,.4,2,7.9,7.9,0,0,1,2.2-.6,11,11,0,0,0,.2-1.8l1.6.2-.3,1.6a4.2,4.2,0,0,1,3.7,4.2c0,2.1-1.6,4.2-5.3,4.3Zm-2.4-3.6a4.1,4.1,0,0,0-.6,2c0,.6.2,1,.5,1.1h.1c.3,0,.5-.2.8-.6S19.7,50.5,19.4,49.6Zm1.2-1.2c.2.6.3,1.2.6,2a19.8,19.8,0,0,0,.8-2.6A3.5,3.5,0,0,0,20.6,48.4Z"/>
      <path class="b" d="M35.5,55.1c-5.1-4.2-6.9-4.3-6.9-5.8s2-1.2,6.7-5.2l1.1,1.5c-4.9,3.5-5.9,3.4-5.9,3.8s1.1.5,6.2,4.3Zm.9-6.2c-.3-.6-.6-1-.9-1.5l.8-.4a11,11,0,0,1,.9,1.4Zm1.2-.7-.9-1.4.8-.4a6,6,0,0,1,.9,1.3Z"/>
      <path class="b" d="M43.7,48.9c-.8,1.6-1.7,2.6-2.5,2.6h-.3c-.7-.2-.9-1.1-.9-2.5a38.8,38.8,0,0,1,.3-4.3h1.6a28.2,28.2,0,0,0-.4,4.3v.5a9.3,9.3,0,0,0,1-1.6Zm3.9,1c0,3.2-1.8,4.5-5.9,4.8l-.6-1.6h.4c3.5,0,4.5-1.3,4.5-3.2h0a45.3,45.3,0,0,0-.3-5.2h1.7c0,1.8.1,3.8.2,5.1Z"/>
    </g>
    <path class="b" d="M31.7,9.7A10.7,10.7,0,0,1,41.6,16v.2H39l4.5,4.2L48,16.2H45.7V16A14.6,14.6,0,0,0,31.6,6c-8,0-14.5,6.1-14.5,13.6h4c0-5.5,4.7-10,10.6-10"/>
    <path class="b" d="M32,33.3A10.7,10.7,0,0,1,22.1,27v-.2h2.7l-4.5-4.2-4.5,4.2H18V27A14.6,14.6,0,0,0,32.1,37c8,0,14.5-6.1,14.5-13.6H42.7c0,5.5-4.8,10-10.7,10"/>
    <path class="b" d="M35.1,17.1a3.3,3.3,0,0,0-3.5,2.6,3.3,3.3,0,0,0-3.5-2.6c-1.4.2-3.3.8-2.9,3.8S31.7,29,31.7,29s5.8-5.1,6.3-8.1-1.4-3.6-2.9-3.8"/>
  </g>
</svg>
