<svg xmlns="http://www.w3.org/2000/svg" width="64" height="64" viewBox="0 0 64 64">
  <defs>
    <style>
      .a {
        fill: #d39ba4;
      }

      .b {
        fill: #fff;
      }
    </style>
  </defs>
  <title>item_ico_aging</title>
  <g>
    <path class="a" d="M64,32A32,32,0,1,1,32,0,32,32,0,0,1,64,32"/>
    <g>
      <path class="b" d="M9.3,52.6V51.2h3.9V46.1h-3V44.6h7.3v1.5h-3v5.1h3.9v1.4Z"/>
      <path class="b" d="M23.3,53.7V48c-1.2.7-2.4,1.4-3.9,2.1l-1-1.2a20.7,20.7,0,0,0,8.1-5.7l1.1,1a19.9,19.9,0,0,1-3,2.8v6.7Z"/>
      <path class="b" d="M31,49.1a16.6,16.6,0,0,0-3.1-1.4l.6-1.3a12.5,12.5,0,0,1,3.2,1.4Zm-2.5,3c4.8-.2,6.3-2,7.3-6.1l1.2.9c-1.4,4.6-2.8,6-8,6.8Zm3.7-5.6a21,21,0,0,0-3-1.5l.7-1.3a16.8,16.8,0,0,1,3,1.5Zm2.9-.9-.6-1.5.7-.4a10.1,10.1,0,0,1,.7,1.5Zm1.2-.6a6.1,6.1,0,0,0-.7-1.4l.8-.4a9.1,9.1,0,0,0,.7,1.4Z"/>
      <path class="b" d="M41.3,46.9a21.4,21.4,0,0,0-3.2-2l.9-1.2,3.1,1.9Zm5.6-.3c-1.5,4.2-3.2,6.1-8.4,6.8l-.3-1.5c4.4-.4,6.4-2.3,7.5-6.3Z"/>
      <path class="b" d="M47.8,52.5c5.2-.7,6.5-3.3,7.1-6H51.3a15.5,15.5,0,0,1-2.9,2.8l-.9-1.1a10.9,10.9,0,0,0,3.8-4.8l1.5.2a6.1,6.1,0,0,1-.7,1.4h3.1l.3.8,1-.5c-.6,4.8-2.3,7.5-7.9,8.5Zm7.8-7.1L55,43.9l.7-.4a10.1,10.1,0,0,1,.7,1.5Zm1.2-.6a6.1,6.1,0,0,0-.7-1.4l.8-.4a9.1,9.1,0,0,0,.7,1.4Z"/>
    </g>
    <path class="b" d="M31.6,20.6a22.4,22.4,0,0,1-4.9-7.4V12.1H38v1.1a23.4,23.4,0,0,1-5,7.4Z"/>
    <path class="b" d="M42.1,11V9.3h1.6V6H21V9.3h1.6V11c0,2.6,4.7,9.7,4.9,10.2s-4.9,7.6-4.9,10.2v1.7H21v3.3H43.7V33.1H42.1V31.4c0-2.6-4.7-9.7-5-10.2s5-7.6,5-10.2M40.4,31.4v1.7H24.2V31.4c0-1.8,5-9.3,5-10.2s-5-8.4-5-10.2V9.3H40.4V11c0,1.8-5,9.3-5,10.2s5,8.4,5,10.2"/>
  </g>
</svg>
